<svg xmlns="http://www.w3.org/2000/svg" viewBox="0 0 540 90" fill="none">
  <!-- Dollar Sign Icon - Green Rounded Square -->
  <rect x="0" y="0" width="90" height="90" rx="18" fill="#4CD964"/>

  <!-- Dollar Sign ($) - Matching the provided image style -->
  <g transform="translate(45, 45)">
    <!-- S curve - thicker, more traditional style -->
    <path d="M-12 -20 C-12 -28, 12 -28, 12 -18 C12 -8, -12 -2, -12 8 C-12 18, 12 22, 12 14"
          stroke="white" stroke-width="10" fill="none" stroke-linecap="round"/>
    <!-- Vertical bar -->
    <rect x="-4" y="-30" width="8" height="60" rx="4" fill="white"/>
  </g>

  <!-- WAVLEBA Text - Clean, bold style for dark backgrounds -->

  <!-- W -->
  <path fill="white" d="M108,18 L122,18 L122,55 L134,18 L146,18 L158,55 L158,18 L172,18 L172,72 L156,72 L140,35 L124,72 L108,72 Z"/>

  <!-- A (first) -->
  <path fill="white" d="M180,72 L194,72 L198,58 L218,58 L222,72 L236,72 L216,18 L200,18 Z M201,48 L208,28 L215,48 Z"/>

  <!-- V -->
  <path fill="white" d="M244,18 L260,18 L274,55 L288,18 L304,18 L280,72 L268,72 Z"/>

  <!-- L -->
  <path fill="white" d="M312,18 L326,18 L326,58 L356,58 L356,72 L312,72 Z"/>

  <!-- E -->
  <path fill="white" d="M364,18 L406,18 L406,32 L378,32 L378,40 L402,40 L402,52 L378,52 L378,58 L406,58 L406,72 L364,72 Z"/>

  <!-- B -->
  <path fill="white" d="M414,18 L448,18 Q464,18 464,34 Q464,42 456,45 Q466,48 466,60 Q466,72 450,72 L414,72 Z M428,32 L428,40 L444,40 Q450,40 450,36 Q450,32 444,32 Z M428,54 L428,60 L446,60 Q452,60 452,57 Q452,54 446,54 Z"/>

  <!-- A (second) -->
  <path fill="white" d="M476,72 L490,72 L494,58 L514,58 L518,72 L532,72 L512,18 L496,18 Z M497,48 L504,28 L511,48 Z"/>
</svg>
